<mxfile host="app.diagrams.net" modified="2024-05-20T12:31:15.318Z" agent="Mozilla/5.0 (Windows NT 10.0; Win64; x64) AppleWebKit/537.36 (KHTML, like Gecko) Chrome/105.0.0.0 Safari/537.36" etag="AP7wDrdHU7ZtLBvvg8xd" version="24.4.4" type="github">
  <diagram name="第 1 页" id="l0GM3ubODpSvcWgnpvx4">
    <mxGraphModel dx="1050" dy="493" grid="1" gridSize="10" guides="1" tooltips="1" connect="1" arrows="1" fold="1" page="1" pageScale="1" pageWidth="827" pageHeight="1169" math="0" shadow="0">
      <root>
        <mxCell id="0" />
        <mxCell id="1" parent="0" />
        <mxCell id="x-i82kJ57RAzi7ihHAsF-1" value="输入信息" style="rounded=1;whiteSpace=wrap;html=1;fontSize=12;glass=0;strokeWidth=1;shadow=0;" vertex="1" parent="1">
          <mxGeometry x="330" y="13" width="80" height="40" as="geometry" />
        </mxCell>
        <mxCell id="x-i82kJ57RAzi7ihHAsF-2" value="Chinese-llama2模型" style="rounded=1;whiteSpace=wrap;html=1;fontSize=12;glass=0;strokeWidth=1;shadow=0;" vertex="1" parent="1">
          <mxGeometry x="290" y="90" width="160" height="70" as="geometry" />
        </mxCell>
        <mxCell id="x-i82kJ57RAzi7ihHAsF-3" value="" style="endArrow=classic;html=1;rounded=0;exitX=0.5;exitY=1;exitDx=0;exitDy=0;" edge="1" parent="1" source="x-i82kJ57RAzi7ihHAsF-1" target="x-i82kJ57RAzi7ihHAsF-2">
          <mxGeometry width="50" height="50" relative="1" as="geometry">
            <mxPoint x="390" y="280" as="sourcePoint" />
            <mxPoint x="440" y="230" as="targetPoint" />
          </mxGeometry>
        </mxCell>
        <mxCell id="x-i82kJ57RAzi7ihHAsF-4" value="&lt;p class=&quot;MsoNormal&quot;&gt;&lt;font style=&quot;font-size: 12px;&quot; face=&quot;Helvetica&quot;&gt;“突然大门被推开了，她有一头金色的长发，蓝色的眼睛，高鼻梁，穿着时尚”&lt;/font&gt;&lt;/p&gt;" style="text;whiteSpace=wrap;html=1;" vertex="1" parent="1">
          <mxGeometry x="430" width="200" height="80" as="geometry" />
        </mxCell>
        <mxCell id="x-i82kJ57RAzi7ihHAsF-5" value="(面部:蓝色的眼睛，高鼻梁，头发:金色的长发，若装:穿着时尚)" style="text;whiteSpace=wrap;fontFamily=Helvetica;" vertex="1" parent="1">
          <mxGeometry x="415" y="210" width="135" height="50" as="geometry" />
        </mxCell>
        <mxCell id="x-i82kJ57RAzi7ihHAsF-6" value="out" style="rhombus;whiteSpace=wrap;html=1;" vertex="1" parent="1">
          <mxGeometry x="330" y="190" width="80" height="80" as="geometry" />
        </mxCell>
        <mxCell id="x-i82kJ57RAzi7ihHAsF-7" value="" style="endArrow=classic;html=1;rounded=0;exitX=0.5;exitY=1;exitDx=0;exitDy=0;" edge="1" parent="1" source="x-i82kJ57RAzi7ihHAsF-2" target="x-i82kJ57RAzi7ihHAsF-6">
          <mxGeometry width="50" height="50" relative="1" as="geometry">
            <mxPoint x="450" y="280" as="sourcePoint" />
            <mxPoint x="500" y="230" as="targetPoint" />
          </mxGeometry>
        </mxCell>
      </root>
    </mxGraphModel>
  </diagram>
</mxfile>
